<?xml version="1.0" encoding="us-ascii" standalone="no"?><svg xmlns="http://www.w3.org/2000/svg" xmlns:xlink="http://www.w3.org/1999/xlink" contentStyleType="text/css" height="755px" preserveAspectRatio="none" style="width:942px;height:755px;background:#FFFFFF;" version="1.1" viewBox="0 0 942 755" width="942px" zoomAndPan="magnify"><defs/><g><rect fill="#F1F1F1" height="40" rx="12.5" ry="12.5" style="stroke:#181818;stroke-width:0.5;" width="50" x="396" y="7"/><text fill="#000000" font-family="sans-serif" font-size="14" lengthAdjust="spacing" textLength="24" x="409" y="31.8467">idle</text><rect fill="#F1F1F1" height="40" rx="12.5" ry="12.5" style="stroke:#181818;stroke-width:0.5;" width="166" x="256" y="124"/><text fill="#000000" font-family="sans-serif" font-size="14" lengthAdjust="spacing" textLength="156" x="261" y="148.8467">get_address_and_cmd</text><rect fill="#F1F1F1" height="40" rx="12.5" ry="12.5" style="stroke:#181818;stroke-width:0.5;" width="129" x="274.5" y="241"/><text fill="#000000" font-family="sans-serif" font-size="14" lengthAdjust="spacing" textLength="119" x="279.5" y="265.8467">answer_ack_start</text><rect fill="#F1F1F1" height="40" rx="12.5" ry="12.5" style="stroke:#181818;stroke-width:0.5;" width="50" x="295" y="358"/><text fill="#000000" font-family="sans-serif" font-size="14" lengthAdjust="spacing" textLength="33" x="303.5" y="382.8467">write</text><rect fill="#F1F1F1" height="40" rx="12.5" ry="12.5" style="stroke:#181818;stroke-width:0.5;" width="112" x="7" y="475"/><text fill="#000000" font-family="sans-serif" font-size="14" lengthAdjust="spacing" textLength="102" x="12" y="499.8467">after_write_ack</text><rect fill="#F1F1F1" height="40" rx="12.5" ry="12.5" style="stroke:#181818;stroke-width:0.5;" width="50" x="578" y="358"/><text fill="#000000" font-family="sans-serif" font-size="14" lengthAdjust="spacing" textLength="31" x="587.5" y="382.8467">read</text><rect fill="#F1F1F1" height="40" rx="12.5" ry="12.5" style="stroke:#181818;stroke-width:0.5;" width="110" x="670" y="475"/><text fill="#000000" font-family="sans-serif" font-size="14" lengthAdjust="spacing" textLength="100" x="675" y="499.8467">read_ack_start</text><rect fill="#F1F1F1" height="40" rx="12.5" ry="12.5" style="stroke:#181818;stroke-width:0.5;" width="146" x="563" y="592"/><text fill="#000000" font-family="sans-serif" font-size="14" lengthAdjust="spacing" textLength="136" x="568" y="616.8467">read_ack_got_rising</text><rect fill="#F1F1F1" height="40" rx="12.5" ry="12.5" style="stroke:#181818;stroke-width:0.5;" width="79" x="596.5" y="709"/><text fill="#000000" font-family="sans-serif" font-size="14" lengthAdjust="spacing" textLength="69" x="601.5" y="733.8467">read_stop</text><!--link State1 to State2--><g id="link_State1_State2"><path d="M395.52,35.01 C375.41,42.03 348.7,55.02 336,77 C328.93,89.23 329.36,104.97 331.7,118 " fill="none" id="State1-to-State2" style="stroke:#181818;stroke-width:1.0;"/><polygon fill="#181818" points="332.9,122.78,334.9927,113.156,331.8865,117.8838,327.1587,114.7776,332.9,122.78" style="stroke:#181818;stroke-width:1.0;"/><text fill="#000000" font-family="sans-serif" font-size="13" lengthAdjust="spacing" textLength="40" x="337" y="90.0669">START</text></g><!--link State2 to State1--><g id="link_State2_State1"><path d="M357.45,123.67 C365.4,114.93 374.56,104.27 382,94 C391.58,80.77 400.94,65.06 408.08,52.29 " fill="none" id="State2-to-State1" style="stroke:#181818;stroke-width:1.0;"/><polygon fill="#181818" points="410.81,48.37,402.9574,54.3145,408.3927,52.7468,409.9604,58.1821,410.81,48.37" style="stroke:#181818;stroke-width:1.0;"/><text fill="#000000" font-family="sans-serif" font-size="13" lengthAdjust="spacing" textLength="119" x="394" y="90.0669">address mismatch</text></g><!--link State2 to State3--><g id="link_State2_State3"><path d="M339,164.25 C339,183.65 339,213.69 339,234.94 " fill="none" id="State2-to-State3" style="stroke:#181818;stroke-width:1.0;"/><polygon fill="#181818" points="339,239.69,343,230.69,339,234.69,335,230.69,339,239.69" style="stroke:#181818;stroke-width:1.0;"/></g><!--link State3 to State4--><g id="link_State3_State4"><path d="M335.82,281.25 C332.61,300.65 327.65,330.69 324.14,351.94 " fill="none" id="State3-to-State4" style="stroke:#181818;stroke-width:1.0;"/><polygon fill="#181818" points="323.19,356.69,328.6036,348.4624,324.005,351.7569,320.7106,347.1583,323.19,356.69" style="stroke:#181818;stroke-width:1.0;"/></g><!--link State3 to State6--><g id="link_State3_State6"><path d="M383.49,281.38 C437,304.69 525.45,343.22 572.06,363.52 " fill="none" id="State3-to-State6" style="stroke:#181818;stroke-width:1.0;"/><polygon fill="#181818" points="576.53,365.91,569.8795,358.6456,571.9469,363.9112,566.6814,365.9785,576.53,365.91" style="stroke:#181818;stroke-width:1.0;"/></g><!--link State4 to State5--><g id="link_State4_State5"><path d="M313.41,398.45 C307.33,413.43 296.82,433.49 281,445 C235.58,478.05 171.79,489.39 124.95,493 " fill="none" id="State4-to-State5" style="stroke:#181818;stroke-width:1.0;"/><polygon fill="#181818" points="120.03,493.43,129.2928,496.7767,125.0172,493.0727,128.7212,488.7972,120.03,493.43" style="stroke:#181818;stroke-width:1.0;"/><text fill="#000000" font-family="sans-serif" font-size="13" lengthAdjust="spacing" textLength="262" x="298" y="441.0669">all bits are processed and scl falling edge</text></g><!--link State5 to State4--><g id="link_State5_State4"><path d="M54.17,474.78 C48.98,460.31 45.32,440.85 56,428 C85.31,392.76 225.38,382.74 288.74,380 " fill="none" id="State5-to-State4" style="stroke:#181818;stroke-width:1.0;"/><polygon fill="#181818" points="293.63,379.75,284.467,376.139,288.6346,379.9641,284.8095,384.1317,293.63,379.75" style="stroke:#181818;stroke-width:1.0;"/><text fill="#000000" font-family="sans-serif" font-size="13" lengthAdjust="spacing" textLength="215" x="57" y="441.0669">pull sda down until scl falling edge</text></g><!--link State6 to State1--><g id="link_State6_State1"><path d="M603.06,357.69 C602.22,306.08 593.21,163.03 522,77 C504.13,55.41 474.46,42.61 451.89,35.54 " fill="none" id="State6-to-State1" style="stroke:#181818;stroke-width:1.0;"/><polygon fill="#181818" points="447.32,33.87,454.7823,40.2977,452.1072,35.3133,457.0915,32.6382,447.32,33.87" style="stroke:#181818;stroke-width:1.0;"/><text fill="#000000" font-family="sans-serif" font-size="13" lengthAdjust="spacing" textLength="171" x="585" y="207.0669">register address undefined</text></g><!--link State6 to State7--><g id="link_State6_State7"><path d="M623.42,398.25 C644.62,418.23 677.79,449.5 700.42,470.83 " fill="none" id="State6-to-State7" style="stroke:#181818;stroke-width:1.0;"/><polygon fill="#181818" points="703.51,473.69,699.7344,464.5936,699.8829,470.2485,694.228,470.397,703.51,473.69" style="stroke:#181818;stroke-width:1.0;"/><text fill="#000000" font-family="sans-serif" font-size="13" lengthAdjust="spacing" textLength="262" x="672" y="441.0669">all bits are processed and scl falling edge</text></g><!--link State7 to State8--><g id="link_State7_State8"><path d="M710.1,515.25 C694.83,534.98 671.04,565.72 654.55,587.03 " fill="none" id="State7-to-State8" style="stroke:#181818;stroke-width:1.0;"/><polygon fill="#181818" points="650.95,590.69,659.6282,586.0329,654.0158,586.7402,653.3085,581.1277,650.95,590.69" style="stroke:#181818;stroke-width:1.0;"/><text fill="#000000" font-family="sans-serif" font-size="13" lengthAdjust="spacing" textLength="151" x="686" y="558.0669">wait until scl rising edge</text></g><!--link State8 to State9--><g id="link_State8_State9"><path d="M636,632.25 C636,651.65 636,681.69 636,702.94 " fill="none" id="State8-to-State9" style="stroke:#181818;stroke-width:1.0;"/><polygon fill="#181818" points="636,707.69,640,698.69,636,702.69,632,698.69,636,707.69" style="stroke:#181818;stroke-width:1.0;"/><text fill="#000000" font-family="sans-serif" font-size="13" lengthAdjust="spacing" textLength="36" x="637" y="675.0669">NACK</text></g><!--link State8 to State6--><g id="link_State8_State6"><path d="M633.23,591.51 C627.26,549.53 613.19,450.62 606.56,404.06 " fill="none" id="State8-to-State6" style="stroke:#181818;stroke-width:1.0;"/><polygon fill="#181818" points="605.76,399.38,603.0883,408.8596,606.4751,404.3286,611.0061,407.7154,605.76,399.38" style="stroke:#181818;stroke-width:1.0;"/><text fill="#000000" font-family="sans-serif" font-size="13" lengthAdjust="spacing" textLength="26" x="623" y="499.5669">ACK</text></g><!--link State5 to State2--><g id="link_State5_State2"><path d="M49.56,474.58 C42.08,461.24 35.47,443.25 42,428 C95.14,303.97 232.29,208.52 300,167.28 " fill="none" id="State5-to-State2" style="stroke:#181818;stroke-width:1.0;"/><polygon fill="#181818" points="303.75,164.41,293.9794,165.6489,299.4727,166.9993,298.1222,172.4926,303.75,164.41" style="stroke:#181818;stroke-width:1.0;"/><text fill="#000000" font-family="sans-serif" font-size="13" lengthAdjust="spacing" textLength="17" x="122" y="324.0669">SR</text></g><!--SRC=[dPBBJiCm44Nt-OfHDvKGhLJQfey5KiKIYKLRLWX59fwa5eaTsLEY_ZtZF71GM95LVEyPp_ZQKtXr26ztxo0SE1AMbCv1Q0cefV-jZD8qZwODDvizGcOi26jDxUOHowOY9aHHtEwXGF65OAu4M5Pqy_iHWaINMbMHCjf55oMnSmTw5BNeHCa29twKarylUZb7IeIK5frBUBOaBMMW7dfAQ5UZJKJwcJGd2SYoHsghQD1WzLEQ4LSshgyFnBedB8f1ptWe_zLnCm9oGubLZZCDrFONvSXKmTj5_cjp0CwzFIliuNG-7CzHjvprpdAaB63VPGQbSgMWzD8ooy2iHahSAgkWhBadtozyA79yymYLDIdlYh9v9ouj86FVFnQKERRryQyvm6Ak74SC_KHNBJ5J6kK8t_odtIRKRxc-5egu1QcYuTlO1_Wsu3l6NmvFpoCZPiFhKHT2o8oDwieJEYb0cbeFEeqd6nGsbtVy1W00]--></g><text x="98%" y="98%" text-anchor="end" font-size="5vh" fill="#cccccc" opacity="0.5" transform="translate(-10,-10)" font-family="Roboto, Arial, Helvetica, sans-serif">pladitor.com</text></svg>