<?xml version="1.0" encoding="us-ascii" standalone="no"?><svg xmlns="http://www.w3.org/2000/svg" xmlns:xlink="http://www.w3.org/1999/xlink" contentStyleType="text/css" height="755px" preserveAspectRatio="none" style="width:1125px;height:755px;background:#FFFFFF;" version="1.1" viewBox="0 0 1125 755" width="1125px" zoomAndPan="magnify"><defs/><g><rect fill="#F1F1F1" height="40" rx="12.5" ry="12.5" style="stroke:#181818;stroke-width:0.5;" width="50" x="561" y="7"/><text fill="#000000" font-family="sans-serif" font-size="14" lengthAdjust="spacing" textLength="24" x="574" y="31.8467">idle</text><rect fill="#F1F1F1" height="40" rx="12.5" ry="12.5" style="stroke:#181818;stroke-width:0.5;" width="166" x="342" y="124"/><text fill="#000000" font-family="sans-serif" font-size="14" lengthAdjust="spacing" textLength="156" x="347" y="148.8467">get_address_and_cmd</text><rect fill="#F1F1F1" height="40" rx="12.5" ry="12.5" style="stroke:#181818;stroke-width:0.5;" width="129" x="360.5" y="241"/><text fill="#000000" font-family="sans-serif" font-size="14" lengthAdjust="spacing" textLength="119" x="365.5" y="265.8467">answer_ack_start</text><rect fill="#F1F1F1" height="40" rx="12.5" ry="12.5" style="stroke:#181818;stroke-width:0.5;" width="50" x="385" y="358"/><text fill="#000000" font-family="sans-serif" font-size="14" lengthAdjust="spacing" textLength="33" x="393.5" y="382.8467">write</text><rect fill="#F1F1F1" height="40" rx="12.5" ry="12.5" style="stroke:#181818;stroke-width:0.5;" width="112" x="68" y="475"/><text fill="#000000" font-family="sans-serif" font-size="14" lengthAdjust="spacing" textLength="102" x="73" y="499.8467">after_write_ack</text><rect fill="#F1F1F1" height="40" rx="12.5" ry="12.5" style="stroke:#181818;stroke-width:0.5;" width="50" x="670" y="358"/><text fill="#000000" font-family="sans-serif" font-size="14" lengthAdjust="spacing" textLength="31" x="679.5" y="382.8467">read</text><rect fill="#F1F1F1" height="40" rx="12.5" ry="12.5" style="stroke:#181818;stroke-width:0.5;" width="110" x="687" y="475"/><text fill="#000000" font-family="sans-serif" font-size="14" lengthAdjust="spacing" textLength="100" x="692" y="499.8467">read_ack_start</text><rect fill="#F1F1F1" height="40" rx="12.5" ry="12.5" style="stroke:#181818;stroke-width:0.5;" width="146" x="883" y="592"/><text fill="#000000" font-family="sans-serif" font-size="14" lengthAdjust="spacing" textLength="136" x="888" y="616.8467">read_ack_got_rising</text><rect fill="#F1F1F1" height="40" rx="12.5" ry="12.5" style="stroke:#181818;stroke-width:0.5;" width="79" x="979.5" y="709"/><text fill="#000000" font-family="sans-serif" font-size="14" lengthAdjust="spacing" textLength="69" x="984.5" y="733.8467">read_stop</text><!--link State1 to State2--><g id="link_State1_State2"><path d="M578.62,47.37 C572.21,61.92 561.64,81.43 547,94 C533.78,105.36 517.58,114.3 501.37,121.25 " fill="none" id="State1-to-State2" style="stroke:#181818;stroke-width:1.0;"/><polygon fill="#181818" points="496.88,123.54,506.7264,123.76,501.4933,121.6119,503.6414,116.3787,496.88,123.54" style="stroke:#181818;stroke-width:1.0;"/><text fill="#000000" font-family="sans-serif" font-size="13" lengthAdjust="spacing" textLength="40" x="562" y="90.0669">START</text></g><!--link State2 to State1--><g id="link_State2_State1"><path d="M416.44,123.78 C411.5,109.5 408.04,90.27 418,77 C434.44,55.08 511.14,39.72 555,32.56 " fill="none" id="State2-to-State1" style="stroke:#181818;stroke-width:1.0;"/><polygon fill="#181818" points="559.7,31.65,550.1836,29.1125,554.762,32.4349,551.4396,37.0133,559.7,31.65" style="stroke:#181818;stroke-width:1.0;"/><text fill="#000000" font-family="sans-serif" font-size="13" lengthAdjust="spacing" textLength="119" x="419" y="90.0669">address mismatch</text></g><!--link State2 to State3--><g id="link_State2_State3"><path d="M425,164.25 C425,183.65 425,213.69 425,234.94 " fill="none" id="State2-to-State3" style="stroke:#181818;stroke-width:1.0;"/><polygon fill="#181818" points="425,239.69,429,230.69,425,234.69,421,230.69,425,239.69" style="stroke:#181818;stroke-width:1.0;"/></g><!--link State3 to State4--><g id="link_State3_State4"><path d="M422.49,281.25 C419.96,300.65 416.04,330.69 413.27,351.94 " fill="none" id="State3-to-State4" style="stroke:#181818;stroke-width:1.0;"/><polygon fill="#181818" points="412.52,356.69,417.668,348.2937,413.1771,351.7334,409.7374,347.2424,412.52,356.69" style="stroke:#181818;stroke-width:1.0;"/></g><!--link State3 to State6--><g id="link_State3_State6"><path d="M470.5,281.38 C525.63,304.86 617.02,343.79 664.4,363.97 " fill="none" id="State3-to-State6" style="stroke:#181818;stroke-width:1.0;"/><polygon fill="#181818" points="668.68,366.21,661.9644,359.0058,664.0791,364.2525,658.8324,366.3672,668.68,366.21" style="stroke:#181818;stroke-width:1.0;"/></g><!--link State4 to State5--><g id="link_State4_State5"><path d="M403.61,398.25 C397.6,413.33 387.07,433.61 371,445 C341.83,465.67 249.1,479.93 185.94,487.53 " fill="none" id="State4-to-State5" style="stroke:#181818;stroke-width:1.0;"/><polygon fill="#181818" points="181.31,488.2,190.7162,491.1195,186.2757,487.615,189.7802,483.1744,181.31,488.2" style="stroke:#181818;stroke-width:1.0;"/><text fill="#000000" font-family="sans-serif" font-size="13" lengthAdjust="spacing" textLength="262" x="388" y="441.0669">all bits are processed and scl falling edge</text></g><!--link State5 to State4--><g id="link_State5_State4"><path d="M125.29,474.63 C127.34,459.69 132.61,439.66 146,428 C180.49,397.98 317.14,385.19 379.13,380.86 " fill="none" id="State5-to-State4" style="stroke:#181818;stroke-width:1.0;"/><polygon fill="#181818" points="383.89,380.47,374.6464,377.0705,378.9008,380.7988,375.1725,385.0532,383.89,380.47" style="stroke:#181818;stroke-width:1.0;"/><text fill="#000000" font-family="sans-serif" font-size="13" lengthAdjust="spacing" textLength="215" x="147" y="441.0669">pull sda down until scl falling edge</text></g><!--link State6 to State1--><g id="link_State6_State1"><path d="M690.98,357.62 C680.65,309.25 651.15,179.77 611,77 C607.78,68.76 603.62,60.07 599.62,52.33 " fill="none" id="State6-to-State1" style="stroke:#181818;stroke-width:1.0;"/><polygon fill="#181818" points="596.89,48.14,597.5512,57.9666,599.2229,52.5624,604.6271,54.2341,596.89,48.14" style="stroke:#181818;stroke-width:1.0;"/><text fill="#000000" font-family="sans-serif" font-size="13" lengthAdjust="spacing" textLength="171" x="655" y="207.0669">register address undefined</text></g><!--link State6 to State7--><g id="link_State6_State7"><path d="M697.96,398.3 C700.44,411.75 704.6,429.91 711,445 C714.64,453.6 719.72,462.4 724.7,470.12 " fill="none" id="State6-to-State7" style="stroke:#181818;stroke-width:1.0;"/><polygon fill="#181818" points="727.79,473.78,726.1644,464.0662,725.033,469.6088,719.4904,468.4774,727.79,473.78" style="stroke:#181818;stroke-width:1.0;"/><text fill="#000000" font-family="sans-serif" font-size="13" lengthAdjust="spacing" textLength="262" x="712" y="441.0669">all bits are processed and scl falling edge</text></g><!--link State7 to State8--><g id="link_State7_State8"><path d="M761.62,515.44 C777,529.84 799.5,549.11 822,562 C841.14,572.96 863.18,582.23 883.78,589.65 " fill="none" id="State7-to-State8" style="stroke:#181818;stroke-width:1.0;"/><polygon fill="#181818" points="888.26,591.59,881.114,584.8125,883.5474,589.9192,878.4407,592.3526,888.26,591.59" style="stroke:#181818;stroke-width:1.0;"/><text fill="#000000" font-family="sans-serif" font-size="13" lengthAdjust="spacing" textLength="151" x="823" y="558.0669">wait until scl rising edge</text></g><!--link State8 to State9--><g id="link_State8_State9"><path d="M966.54,632.25 C977.27,651.82 993.91,682.21 1005.57,703.49 " fill="none" id="State8-to-State9" style="stroke:#181818;stroke-width:1.0;"/><polygon fill="#181818" points="1008.42,707.69,1007.6085,697.8746,1006.0197,703.3038,1000.5906,701.7151,1008.42,707.69" style="stroke:#181818;stroke-width:1.0;"/><text fill="#000000" font-family="sans-serif" font-size="13" lengthAdjust="spacing" textLength="36" x="992" y="675.0669">NACK</text></g><!--link State8 to State6--><g id="link_State8_State6"><path d="M966.87,591.51 C985.69,554.86 1018.71,475.15 979,428 C946.93,389.92 793.12,381.44 726.2,379.54 " fill="none" id="State8-to-State6" style="stroke:#181818;stroke-width:1.0;"/><polygon fill="#181818" points="721.39,379.39,730.2842,383.62,726.3883,379.5185,730.4898,375.6227,721.39,379.39" style="stroke:#181818;stroke-width:1.0;"/><text fill="#000000" font-family="sans-serif" font-size="13" lengthAdjust="spacing" textLength="26" x="998" y="499.5669">ACK</text></g><!--link State9 to State1--><g id="link_State9_State1"><path d="M1037.56,708.58 C1056.14,687.03 1082,650.33 1082,613 C1082,143 1082,143 1082,143 C1082,47.14 725.94,31.16 617.18,28.52 " fill="none" id="State9-to-State1" style="stroke:#181818;stroke-width:1.0;"/><polygon fill="#181818" points="612.28,28.38,621.1862,32.5846,617.2787,28.4943,621.3691,24.5867,612.28,28.38" style="stroke:#181818;stroke-width:1.0;"/><text fill="#000000" font-family="sans-serif" font-size="13" lengthAdjust="spacing" textLength="34" x="1083" y="382.5669">STOP</text></g><!--link State5 to State2--><g id="link_State5_State2"><path d="M120.81,474.65 C119.45,461.01 119.43,442.64 126,428 C181.41,304.45 318.56,208.77 386.12,167.38 " fill="none" id="State5-to-State2" style="stroke:#181818;stroke-width:1.0;"/><polygon fill="#181818" points="389.87,164.49,380.1024,165.7527,385.599,167.0897,384.262,172.5863,389.87,164.49" style="stroke:#181818;stroke-width:1.0;"/><text fill="#000000" font-family="sans-serif" font-size="13" lengthAdjust="spacing" textLength="17" x="207" y="324.0669">SR</text></g><!--link State5 to State1--><g id="link_State5_State1"><path d="M82.4,474.57 C48.42,455.51 6,422.91 6,379 C6,143 6,143 6,143 C6,30.06 434.48,26.31 554.87,27.48 " fill="none" id="State5-to-State1" style="stroke:#181818;stroke-width:1.0;"/><polygon fill="#181818" points="559.71,27.55,550.7446,23.473,554.7102,27.5071,550.676,31.4727,559.71,27.55" style="stroke:#181818;stroke-width:1.0;"/><text fill="#000000" font-family="sans-serif" font-size="13" lengthAdjust="spacing" textLength="34" x="7" y="265.5669">STOP</text></g><!--SRC=[dPBBQiCm44Nt_eeXcq1f0caIvx4eX2uBRKdILIb6jSQEg2qPQLAJl-_u5JcugtfbtNj6CxhI6DuTmiVT9mW7ZeGbfLCGMW9gMVqMHccQ1kEQcqmU8J4MXBMcTDE0PLCG4oBBBlUGeVX1C6S2p0kwLFiHWaGNMrMGCje59oMnTNjw43JeICaCHzKeXsezw-GKAH9IMdGkujcYE9UUUkWeeLs9DXBnTrIVn2Fp3Ycjebw3nRKq8QwitQhU4ykEi2XwFSE-_5V7rG183KLMESxKK-iRof4flBS9gg_90JZtvgomXSDnjpy6xNBIEVE1CeDjcndaokM2ubF3p3sp62XXeooyikIUVB_mfSZnpICKriIyAyhwdRWuWuJzwh6WJB6f3s_c08kfSXmnT1ETjSH4QPG3VFMVTYjVl-RwKYZY5gIocczYx-5hZsyOVzazFG-Ca8shlhazpk7u-XQquVWisIZEFBcJ0gGfTM-2uSIzmlfIzmEvQ_GB]--></g><text x="98%" y="98%" text-anchor="end" font-size="5vh" fill="#cccccc" opacity="0.5" transform="translate(-10,-10)" font-family="Roboto, Arial, Helvetica, sans-serif">pladitor.com</text></svg>